<svg width="109" height="104" viewBox="0 0 109 104" fill="none" xmlns="http://www.w3.org/2000/svg">
<g clip-path="url(#clip0_3_168)">
<path d="M57.06 19.33C57.29 11.71 63.54 5.59998 71.22 5.59998C78.9 5.59998 85.39 11.94 85.39 19.77C85.39 20.14 85.37 20.51 85.34 20.88C86.62 20.51 87.97 20.31 89.36 20.31C97.44 20.31 103.98 26.86 103.98 34.93C103.98 39.17 102.17 42.99 99.29 45.66C100.33 47.06 100.95 48.8 100.95 50.68C100.95 51.97 100.66 53.19 100.14 54.28C104.52 57.07 107.43 61.96 107.43 67.54C107.43 76.22 100.4 83.25 91.72 83.25C91.65 83.25 91.58 83.25 91.51 83.25C91.65 84.14 91.72 85.04 91.72 85.97C91.72 95.54 83.96 103.31 74.38 103.31C64.8 103.31 57.04 95.55 57.04 85.97V19.33H57.05H57.06Z" fill="#00E0FF"/>
<path d="M51.67 19.33C51.44 11.71 45.19 5.59998 37.51 5.59998C29.83 5.59998 23.34 11.94 23.34 19.77C23.34 20.14 23.36 20.51 23.39 20.88C22.11 20.51 20.76 20.31 19.37 20.31C11.29 20.31 4.74999 26.86 4.74999 34.93C4.74999 39.17 6.55999 42.99 9.43999 45.66C8.39999 47.06 7.77999 48.8 7.77999 50.68C7.77999 51.97 8.06999 53.19 8.58999 54.28C4.20999 57.07 1.29999 61.96 1.29999 67.54C1.29999 76.22 8.32999 83.25 17.01 83.25C17.08 83.25 17.15 83.25 17.22 83.25C17.08 84.14 17.01 85.04 17.01 85.97C17.01 95.54 24.77 103.31 34.35 103.31C43.93 103.31 51.69 95.55 51.69 85.97V19.33H51.68H51.67Z" fill="#00E0FF"/>
<path d="M74.38 100.3C64.11 100.3 55.75 91.94 55.75 81.67V15.02C55.75 14.95 55.75 14.88 55.77 14.81C56.11 6.49 62.86 0 71.21 0C79.56 0 86.39 6.66 86.66 14.94C87.55 14.79 88.45 14.71 89.35 14.71C98.13 14.71 105.27 21.85 105.27 30.62C105.27 34.67 103.7 38.59 100.94 41.53C101.79 43 102.23 44.66 102.23 46.38C102.23 47.45 102.06 48.5 101.72 49.5C106.12 52.7 108.72 57.76 108.72 63.25C108.72 72.21 101.75 79.58 92.95 80.21C92.99 80.7 93.01 81.19 93.01 81.67C93.01 91.94 84.65 100.3 74.38 100.3ZM58.34 15.19V81.67C58.34 90.52 65.54 97.71 74.38 97.71C83.22 97.71 90.42 90.51 90.42 81.67C90.42 80.83 90.35 79.99 90.22 79.15C90.16 78.77 90.27 78.39 90.52 78.1C90.77 77.81 91.14 77.65 91.51 77.65H91.71C99.66 77.65 106.13 71.19 106.13 63.24C106.13 58.28 103.63 53.73 99.43 51.07C98.88 50.72 98.68 50.02 98.96 49.43C99.41 48.47 99.64 47.45 99.64 46.38C99.64 44.84 99.16 43.36 98.24 42.13C97.85 41.6 97.92 40.86 98.4 40.41C101.12 37.89 102.68 34.33 102.68 30.63C102.68 23.28 96.7 17.3 89.35 17.3C88.11 17.3 86.88 17.47 85.68 17.82C85.27 17.94 84.84 17.85 84.51 17.58C84.18 17.31 84.01 16.9 84.04 16.48C84.07 16.1 84.08 15.78 84.08 15.47C84.08 8.37 78.3 2.59 71.2 2.59C64.1 2.59 58.55 8.07 58.34 15.07C58.34 15.11 58.34 15.16 58.33 15.2L58.34 15.19Z" fill="white"/>
<path d="M92.45 56.12C91.74 56.12 91.16 55.54 91.16 54.83C91.16 54.12 91.74 53.54 92.45 53.54C96.4 53.54 99.61 50.33 99.61 46.38C99.61 42.43 96.4 39.22 92.45 39.22C91.74 39.22 91.16 38.64 91.16 37.93C91.16 37.22 91.74 36.64 92.45 36.64C97.82 36.64 102.19 41.01 102.19 46.38C102.19 51.75 97.82 56.12 92.45 56.12Z" fill="white"/>
<path d="M85.57 24.64C85.32 24.64 85.06 24.57 84.84 24.41C84.25 24.01 84.1 23.2 84.51 22.61C84.99 21.91 85.25 21.08 85.25 20.22C85.25 17.9 83.36 16.01 81.04 16.01C80.13 16.01 79.26 16.3 78.54 16.84C77.97 17.27 77.16 17.15 76.73 16.57C76.3 16 76.42 15.19 77 14.76C78.18 13.89 79.58 13.42 81.05 13.42C84.8 13.42 87.84 16.47 87.84 20.21C87.84 21.59 87.43 22.93 86.64 24.06C86.39 24.42 85.99 24.62 85.57 24.62V24.64Z" fill="white"/>
<path d="M81.23 44.98C75.77 44.98 71.32 40.54 71.32 35.08C71.32 32.43 72.35 29.95 74.22 28.08C74.72 27.58 75.54 27.58 76.05 28.08C76.55 28.58 76.55 29.4 76.05 29.91C74.67 31.29 73.91 33.13 73.91 35.09C73.91 39.13 77.19 42.41 81.23 42.41C83.61 42.41 85.86 41.24 87.23 39.29C87.64 38.71 88.45 38.56 89.03 38.97C89.61 39.38 89.76 40.19 89.35 40.77C87.49 43.42 84.46 44.99 81.23 44.99V44.98Z" fill="white"/>
<path d="M71.65 92.09C70.92 92.09 70.19 92.01 69.46 91.84C64.13 90.63 60.78 85.31 61.99 79.99C62.58 77.41 64.13 75.21 66.37 73.8C66.97 73.42 67.77 73.6 68.15 74.2C68.53 74.8 68.35 75.6 67.75 75.98C66.1 77.02 64.95 78.65 64.51 80.55C63.62 84.49 66.09 88.42 70.03 89.31C72.35 89.84 74.8 89.2 76.57 87.59C77.1 87.11 77.92 87.15 78.4 87.68C78.88 88.21 78.84 89.03 78.31 89.51C76.47 91.18 74.08 92.08 71.65 92.08V92.09Z" fill="white"/>
<path d="M64.66 26.79C62.79 26.79 60.96 26.26 59.35 25.23C58.75 24.85 58.57 24.05 58.96 23.45C59.34 22.85 60.14 22.67 60.74 23.06C62.39 24.11 64.35 24.46 66.26 24.04C70.2 23.17 72.7 19.25 71.83 15.31C71.32 12.98 69.69 11.04 67.49 10.13C66.83 9.86003 66.52 9.10003 66.79 8.44003C67.06 7.78003 67.82 7.47003 68.48 7.74003C71.46 8.98003 73.66 11.6 74.36 14.75C75.54 20.08 72.16 25.38 66.83 26.56C66.11 26.72 65.39 26.8 64.67 26.8L64.66 26.79Z" fill="white"/>
<path d="M68.24 48.78C63.54 48.78 59.71 44.95 59.71 40.25C59.71 39.54 60.29 38.96 61 38.96C61.71 38.96 62.29 39.54 62.29 40.25C62.29 43.53 64.96 46.2 68.24 46.2C71.18 46.2 73.65 44.1 74.11 41.2C74.22 40.5 74.89 40.02 75.59 40.13C76.29 40.24 76.77 40.91 76.66 41.61C75.99 45.77 72.45 48.78 68.24 48.78Z" fill="white"/>
<path d="M83.91 84.14C81.64 84.14 79.49 83.42 77.68 82.06C77.11 81.63 76.99 80.82 77.42 80.25C77.85 79.68 78.66 79.56 79.23 79.99C80.59 81.01 82.21 81.55 83.91 81.55C88.21 81.55 91.71 78.05 91.71 73.75C91.71 71.34 90.62 69.11 88.73 67.62C88.17 67.18 88.07 66.37 88.51 65.81C88.95 65.25 89.76 65.15 90.32 65.59C92.84 67.57 94.29 70.55 94.29 73.76C94.29 79.49 89.63 84.15 83.9 84.15L83.91 84.14Z" fill="white"/>
<path d="M73.31 68.34C71.41 68.34 69.58 67.71 68.07 66.52C66.29 65.12 65.15 63.1 64.88 60.85C64.66 59.01 65.03 57.18 65.96 55.58C66.32 54.96 67.11 54.75 67.73 55.11C68.35 55.47 68.56 56.26 68.2 56.88C67.55 57.99 67.29 59.26 67.45 60.55C67.64 62.12 68.43 63.52 69.67 64.5C70.91 65.48 72.46 65.91 74.03 65.72C75.84 65.5 77.43 64.48 78.38 62.92C78.75 62.31 79.55 62.12 80.16 62.49C80.77 62.86 80.96 63.66 80.59 64.27C79.22 66.51 76.94 67.98 74.34 68.29C74 68.33 73.65 68.35 73.31 68.35V68.34Z" fill="white"/>
<path d="M34.34 100.3C24.07 100.3 15.71 91.94 15.71 81.67C15.71 81.18 15.73 80.69 15.77 80.21C6.97 79.58 0 72.21 0 63.25C0 57.77 2.6 52.7 7 49.5C6.66 48.5 6.49 47.45 6.49 46.38C6.49 44.66 6.93 43 7.78 41.53C5.02 38.59 3.45 34.67 3.45 30.62C3.45 21.84 10.59 14.71 19.37 14.71C20.27 14.71 21.17 14.79 22.06 14.94C22.34 6.66 29.16 0 37.51 0C45.86 0 52.61 6.49 52.95 14.81C52.96 14.88 52.97 14.95 52.97 15.02V81.67C52.97 91.94 44.61 100.3 34.34 100.3ZM17.22 77.66C17.59 77.66 17.95 77.82 18.2 78.11C18.45 78.4 18.56 78.78 18.5 79.16C18.37 79.99 18.3 80.84 18.3 81.68C18.3 90.53 25.5 97.72 34.34 97.72C43.18 97.72 50.38 90.52 50.38 81.68V15.19C50.38 15.19 50.38 15.11 50.37 15.06C50.16 8.06 44.51 2.58 37.51 2.58C30.51 2.58 24.63 8.36 24.63 15.46C24.63 15.76 24.64 16.09 24.67 16.47C24.7 16.89 24.53 17.3 24.2 17.57C23.87 17.84 23.43 17.93 23.03 17.81C21.83 17.47 20.6 17.29 19.36 17.29C12.01 17.29 6.03 23.27 6.03 30.62C6.03 34.32 7.59 37.89 10.31 40.4C10.79 40.85 10.86 41.59 10.47 42.12C9.55 43.36 9.07 44.83 9.07 46.37C9.07 47.44 9.3 48.46 9.75 49.42C10.03 50.01 9.82 50.71 9.27 51.06C5.08 53.73 2.57 58.28 2.57 63.23C2.57 71.18 9.04 77.65 16.99 77.65H17.19C17.19 77.65 17.2 77.65 17.21 77.65L17.22 77.66Z" fill="white"/>
<path d="M16.27 56.12C10.9 56.12 6.53 51.75 6.53 46.38C6.53 41.01 10.9 36.64 16.27 36.64C16.98 36.64 17.56 37.22 17.56 37.93C17.56 38.64 16.98 39.22 16.27 39.22C12.32 39.22 9.11 42.43 9.11 46.38C9.11 50.33 12.32 53.54 16.27 53.54C16.98 53.54 17.56 54.12 17.56 54.83C17.56 55.54 16.98 56.12 16.27 56.12Z" fill="white"/>
<path d="M23.15 24.64C22.74 24.64 22.34 24.44 22.08 24.08C21.3 22.94 20.88 21.61 20.88 20.23C20.88 16.48 23.93 13.44 27.67 13.44C29.14 13.44 30.54 13.9 31.71 14.77C32.28 15.2 32.4 16 31.98 16.58C31.56 17.15 30.75 17.27 30.17 16.85C29.44 16.31 28.58 16.02 27.66 16.02C25.34 16.02 23.45 17.91 23.45 20.23C23.45 21.09 23.71 21.91 24.19 22.62C24.6 23.21 24.45 24.01 23.86 24.42C23.64 24.57 23.38 24.65 23.13 24.65L23.15 24.64Z" fill="white"/>
<path d="M27.5 44.98C24.27 44.98 21.24 43.4 19.38 40.76C18.97 40.18 19.11 39.37 19.7 38.96C20.28 38.55 21.09 38.69 21.5 39.28C22.87 41.24 25.11 42.4 27.5 42.4C31.54 42.4 34.82 39.12 34.82 35.08C34.82 33.12 34.06 31.29 32.68 29.9C32.18 29.4 32.18 28.58 32.68 28.07C33.18 27.57 34 27.57 34.51 28.07C36.38 29.94 37.41 32.43 37.41 35.07C37.41 40.53 32.97 44.97 27.5 44.97V44.98Z" fill="white"/>
<path d="M37.07 92.09C34.64 92.09 32.25 91.19 30.41 89.52C29.88 89.04 29.84 88.22 30.32 87.69C30.8 87.16 31.62 87.12 32.15 87.6C33.92 89.2 36.37 89.85 38.69 89.32C42.63 88.43 45.1 84.5 44.21 80.56C43.78 78.65 42.63 77.03 40.97 75.99C40.37 75.61 40.19 74.81 40.57 74.21C40.95 73.61 41.75 73.43 42.35 73.81C44.59 75.22 46.14 77.42 46.73 80C47.94 85.33 44.59 90.64 39.26 91.85C38.54 92.01 37.8 92.1 37.07 92.1V92.09Z" fill="white"/>
<path d="M44.07 26.79C43.35 26.79 42.63 26.71 41.91 26.55C36.58 25.37 33.2 20.07 34.38 14.74C35.08 11.59 37.27 8.97002 40.26 7.73002C40.92 7.46002 41.68 7.77002 41.95 8.43002C42.22 9.09002 41.91 9.85002 41.25 10.12C39.04 11.04 37.42 12.98 36.91 15.3C36.04 19.24 38.54 23.16 42.48 24.03C44.39 24.45 46.35 24.1 48 23.05C48.6 22.67 49.4 22.84 49.78 23.44C50.16 24.04 49.99 24.84 49.39 25.22C47.78 26.25 45.95 26.78 44.08 26.78L44.07 26.79Z" fill="white"/>
<path d="M40.48 48.78C36.27 48.78 32.72 45.76 32.06 41.61C31.95 40.91 32.43 40.24 33.13 40.13C33.83 40.02 34.5 40.5 34.61 41.2C35.07 44.09 37.54 46.2 40.48 46.2C43.76 46.2 46.43 43.53 46.43 40.25C46.43 39.54 47.01 38.96 47.72 38.96C48.43 38.96 49.01 39.54 49.01 40.25C49.01 44.95 45.18 48.78 40.48 48.78Z" fill="white"/>
<path d="M24.82 84.14C19.09 84.14 14.43 79.48 14.43 73.75C14.43 70.54 15.88 67.57 18.4 65.58C18.96 65.14 19.77 65.24 20.21 65.8C20.65 66.36 20.55 67.17 19.99 67.61C18.1 69.1 17.01 71.34 17.01 73.74C17.01 78.04 20.51 81.54 24.81 81.54C26.51 81.54 28.13 81 29.49 79.98C30.06 79.55 30.87 79.67 31.3 80.24C31.73 80.81 31.61 81.62 31.04 82.05C29.23 83.41 27.08 84.13 24.81 84.13L24.82 84.14Z" fill="white"/>
<path d="M35.41 68.34C35.07 68.34 34.73 68.32 34.38 68.28C31.78 67.97 29.5 66.5 28.13 64.26C27.76 63.65 27.95 62.86 28.56 62.48C29.17 62.11 29.96 62.3 30.34 62.91C31.29 64.47 32.88 65.49 34.69 65.71C36.26 65.9 37.81 65.46 39.05 64.49C40.29 63.51 41.08 62.11 41.27 60.54C41.42 59.26 41.16 57.99 40.52 56.87C40.16 56.25 40.37 55.46 40.99 55.1C41.61 54.74 42.4 54.95 42.76 55.57C43.69 57.17 44.06 58.99 43.84 60.84C43.57 63.1 42.44 65.11 40.65 66.51C39.14 67.7 37.31 68.33 35.41 68.33V68.34Z" fill="white"/>
</g>
<defs>
<clipPath id="clip0_3_168">
<rect width="108.72" height="103.32" fill="white"/>
</clipPath>
</defs>
</svg>
